
<svg version="1.0" xmlns="http://www.w3.org/2000/svg"
 width="616.000000pt" height="467.000000pt" viewBox="0 0 616.000000 467.000000"
 preserveAspectRatio="xMidYMid meet">

<g transform="translate(0.000000,467.000000) scale(0.100000,-0.100000)"
fill="#000000" stroke="none">
<path d="M2369 4645 c-299 -60 -525 -275 -611 -580 -22 -79 -23 -85 -23 -755
0 -670 1 -676 23 -755 79 -281 281 -487 558 -567 l79 -23 690 0 690 0 79 23
c276 80 486 294 556 567 19 74 20 112 20 755 0 765 1 751 -80 916 -77 155
-193 269 -355 349 -167 83 -125 79 -885 81 -530 2 -689 0 -741 -11z m286 -800
c147 -31 289 -130 343 -239 l24 -47 37 58 c114 176 312 254 537 212 136 -25
258 -118 319 -243 43 -86 67 -196 63 -285 l-3 -66 -378 -3 -379 -2 7 -33 c4
-17 18 -56 32 -85 47 -100 152 -149 298 -139 101 6 164 32 227 94 l47 46 55
-42 c84 -65 84 -64 42 -115 -68 -83 -171 -146 -283 -172 -91 -21 -254 -14
-337 15 -156 55 -263 171 -311 335 l-17 57 -34 -40 c-19 -22 -61 -57 -93 -79
l-59 -39 95 -134 94 -134 -107 -3 c-59 -1 -111 2 -118 7 -6 5 -43 55 -81 110
l-70 101 -107 0 -107 0 -3 -107 -3 -108 -97 -3 -98 -3 0 551 0 550 198 0 c134
0 219 -5 267 -15z"/>
<path d="M2390 3414 l0 -236 128 4 c104 3 136 8 177 27 104 46 149 116 143
222 -5 91 -39 141 -127 186 -61 32 -66 33 -192 33 l-129 0 0 -236z"/>
<path d="M3423 3630 c-99 -20 -163 -81 -191 -182 l-10 -38 259 0 c294 0 278
-6 235 85 -49 107 -165 160 -293 135z"/>
<path d="M1047 1689 c-9 -5 -24 -24 -33 -41 -52 -100 78 -188 158 -108 27 28
30 36 25 73 -7 54 -44 87 -95 87 -20 0 -45 -5 -55 -11z"/>
<path d="M5404 1656 c-37 -37 -43 -70 -20 -115 47 -90 186 -50 186 55 0 38
-59 94 -100 94 -23 0 -41 -9 -66 -34z"/>
<path d="M1405 1668 c-3 -7 -4 -229 -3 -493 l3 -480 85 0 85 0 5 175 5 175 99
0 99 0 88 -165 c48 -91 93 -171 99 -177 12 -15 166 -18 174 -5 3 5 -39 91 -94
191 l-98 182 39 16 c21 8 61 39 87 68 105 115 109 307 9 421 -79 90 -139 104
-448 104 -174 0 -231 -3 -234 -12z m502 -164 c98 -73 98 -207 0 -272 -39 -26
-46 -27 -181 -27 l-141 0 -3 163 -3 163 150 -3 c133 -3 153 -5 178 -24z"/>
<path d="M355 1648 c-17 -44 -315 -944 -315 -950 0 -5 35 -8 78 -8 l78 0 42
130 43 130 177 0 177 0 44 -130 44 -130 83 0 c46 0 84 3 84 7 0 4 -75 222
-167 485 l-167 478 -98 0 c-70 0 -100 -4 -103 -12z m174 -357 l68 -211 -138 0
c-103 0 -139 3 -139 12 0 17 133 418 138 414 1 -2 34 -99 71 -215z"/>
<path d="M5787 1574 c-4 -4 -7 -52 -7 -106 l0 -98 -50 0 -50 0 0 -64 0 -65 48
-3 47 -3 5 -205 c5 -172 9 -211 24 -240 47 -91 120 -126 242 -117 106 8 114
14 114 93 0 59 -2 65 -17 59 -10 -4 -41 -10 -69 -12 -43 -5 -54 -2 -80 20
l-29 25 0 189 0 188 78 3 77 3 0 64 0 65 -80 0 -79 0 -3 103 -3 102 -80 3
c-45 1 -84 0 -88 -4z"/>
<path d="M2477 1379 c-168 -40 -265 -182 -255 -372 6 -109 34 -172 104 -236
66 -61 145 -90 266 -98 92 -6 218 9 276 33 33 13 33 14 30 76 -2 50 -6 62 -18
60 -239 -55 -407 -35 -467 57 -42 63 -51 60 265 63 l287 3 -1 71 c-3 180 -88
298 -245 339 -59 16 -182 18 -242 4z m211 -145 c20 -8 49 -27 65 -41 27 -26
51 -88 41 -105 -3 -4 -96 -8 -206 -8 l-201 0 6 37 c9 51 35 84 87 111 53 27
152 30 208 6z"/>
<path d="M3355 1376 c-115 -28 -189 -85 -237 -184 -30 -61 -33 -74 -33 -162 0
-83 4 -103 28 -155 16 -33 42 -75 60 -93 73 -77 215 -120 357 -109 76 6 188
40 202 61 9 13 11 136 3 136 -3 0 -22 -8 -43 -19 -77 -39 -208 -52 -285 -29
-58 17 -122 82 -137 138 -27 102 10 212 89 258 79 46 229 42 334 -8 22 -11 41
-19 42 -17 1 1 0 33 -3 70 -4 66 -5 68 -41 86 -79 40 -233 52 -336 27z"/>
<path d="M1010 1045 l0 -335 90 0 90 0 0 335 0 335 -90 0 -90 0 0 -335z"/>
<path d="M3882 1033 l3 -338 86 -3 87 -3 7 37 c3 20 3 107 -1 193 -7 178 0
210 57 254 46 35 83 48 159 55 l65 7 3 69 3 69 -59 -6 c-80 -9 -149 -33 -194
-68 l-37 -29 -3 47 -3 48 -88 3 -87 3 2 -338z"/>
<path d="M4450 1132 c0 -190 3 -249 16 -293 34 -114 144 -178 283 -166 79 7
132 27 189 74 l42 34 0 -45 0 -46 85 0 85 0 0 340 0 340 -90 0 -90 0 0 -221
c0 -207 -1 -223 -21 -250 -49 -70 -179 -109 -250 -75 -62 29 -63 37 -69 301
l-5 240 -87 3 -88 3 0 -239z"/>
<path d="M5380 1030 l0 -340 90 0 90 0 0 340 0 340 -90 0 -90 0 0 -340z"/>
</g>
</svg>
